<?xml version="1.0" encoding="utf-8"?>
<!-- Generator: Adobe Illustrator 25.2.3, SVG Export Plug-In . SVG Version: 6.00 Build 0)  -->
<svg version="1.1" id="icons" xmlns="http://www.w3.org/2000/svg" xmlns:xlink="http://www.w3.org/1999/xlink" x="0px" y="0px"
	 viewBox="0 0 1867.5 1129.8" style="enable-background:new 0 0 1867.5 1129.8;" xml:space="preserve">
<style type="text/css">
	.st0{fill:#3D5A80;}
</style>
<g>
	<g>
		<path class="st0" d="M46.4,830.6c-12.4,0-24-4.8-32.7-13.5C4.8,808.3,0,796.6,0,784.1V46.5C0,20.9,20.8,0.1,46.4,0.1H1295
			c19.1,0,34.6,15.4,34.6,34.6s-15.4,34.6-34.6,34.6H69.2v692.1l72.9-0.4c18.8-0.2,34.7,15.3,34.7,34.4
			c0.1,19.1-15.3,34.7-34.4,34.7l-95.7,0.5C46.6,830.6,46.5,830.6,46.4,830.6z M46.3,761.5L46.3,761.5L46.3,761.5z"/>
	</g>
	<g>
		<path class="st0" d="M1727.2,974.1c-19.1,0-34.6-15.4-34.6-34.6s15.4-34.6,34.6-34.6c39.3,0,71.2-32,71.2-71.4V584.4
			c-0.1-28.7-15.5-55.5-40.3-69.8l-105.5-61l-179-384.4h-247.7c-19.1,0-34.6-15.4-34.6-34.6S1206.7,0,1225.8,0h250.3
			c25.2,0,48.4,14.8,59,37.7L1706,404.5l86.6,50.1c46.1,26.6,74.8,76.2,74.9,129.5v0.7v248.6C1867.5,911,1804.6,974.1,1727.2,974.1z
			"/>
	</g>
	<g>
		<path class="st0" d="M1543.2,545.7h-232c-61.9,0-112.3-50.3-112.3-112.3V164.8c0-44.3,36-80.2,80.2-80.2h238.7
			c19.1,0,34.6,15.4,34.6,34.6s-15.4,34.6-34.6,34.6h-238.7c-6.1,0-11.1,5-11.1,11.1v268.6c0,23.7,19.4,43.1,43.1,43.1h232
			c13,0,25.7-4.4,35.9-12.4l78.8-62.2c15-11.8,36.7-9.3,48.6,5.8c11.8,15,9.3,36.7-5.8,48.6l-78.8,62.2
			C1599.5,536,1571.6,545.7,1543.2,545.7z"/>
	</g>
	<g>
		<path class="st0" d="M1779.1,830.1h-138.3c-19.1,0-34.6-15.4-34.6-34.6c0-19.1,15.4-34.6,34.6-34.6h138.3
			c19.1,0,34.6,15.4,34.6,34.6C1813.7,814.6,1798.3,830.1,1779.1,830.1z"/>
	</g>
	<g>
		<path class="st0" d="M1225.8,830.1H511.1c-19.1,0-34.6-15.4-34.6-34.6c0-19.1,15.4-34.6,34.6-34.6h714.7
			c19.1,0,34.6,15.4,34.6,34.6C1260.4,814.6,1244.9,830.1,1225.8,830.1z"/>
	</g>
	<g>
		<path class="st0" d="M1825.2,737.9h-61.5c-19.1,0-34.6-15.4-34.6-34.6c0-19.1,15.4-34.6,34.6-34.6h61.5
			c19.1,0,34.6,15.4,34.6,34.6C1859.8,722.4,1844.4,737.9,1825.2,737.9z"/>
	</g>
	<g>
		<path class="st0" d="M1433.3,1129.8c-108.1,0-196-87.9-196-196s87.9-196,196-196c108.1,0,196,87.9,196,196
			S1541.3,1129.8,1433.3,1129.8z M1433.3,807c-69.9,0-126.8,56.9-126.8,126.8s56.9,126.8,126.8,126.8c69.9,0,126.8-56.9,126.8-126.8
			C1560.1,863.9,1503.2,807,1433.3,807z"/>
	</g>
	<g>
		<path class="st0" d="M1437.1,1022.2c-46.6,0-84.5-37.9-84.5-84.5s37.9-84.5,84.5-84.5c46.6,0,84.5,37.9,84.5,84.5
			S1483.8,1022.2,1437.1,1022.2z M1437.1,922.3c-8.5,0-15.4,6.9-15.4,15.4c0,8.5,6.9,15.4,15.4,15.4c8.5,0,15.4-6.9,15.4-15.4
			C1452.5,929.2,1445.6,922.3,1437.1,922.3z"/>
	</g>
	<g>
		<path class="st0" d="M334.3,1129.8c-108.1,0-196-87.9-196-196s87.9-196,196-196s196,87.9,196,196S442.4,1129.8,334.3,1129.8z
			 M334.3,807c-69.9,0-126.8,56.9-126.8,126.8s56.9,126.8,126.8,126.8s126.8-56.9,126.8-126.8C461.1,863.9,404.2,807,334.3,807z"/>
	</g>
	<g>
		<path class="st0" d="M330.5,1022.2c-46.6,0-84.5-37.9-84.5-84.5s37.9-84.5,84.5-84.5S415,891,415,937.7S377.1,1022.2,330.5,1022.2
			z M330.5,922.3c-8.5,0-15.4,6.9-15.4,15.4c0,8.5,6.9,15.4,15.4,15.4s15.4-6.9,15.4-15.4C345.8,929.2,338.9,922.3,330.5,922.3z"/>
	</g>
	<g>
		<path class="st0" d="M1195,968.4H572.5c-19.1,0-34.6-15.4-34.6-34.6c0-19.1,15.4-34.6,34.6-34.6H1195c19.1,0,34.6,15.4,34.6,34.6
			C1229.6,953,1214.2,968.4,1195,968.4z"/>
	</g>
	<g>
		<path class="st0" d="M90.4,968.4H32.5C14.5,968.4,0,953,0,933.8c0-19.1,14.5-34.6,32.5-34.6h57.9c18,0,32.5,15.4,32.5,34.6
			C123,953,108.4,968.4,90.4,968.4z"/>
	</g>
	<g>
		<path class="st0" d="M1487.1,274.5c-8.8,0-17.7-3.4-24.4-10.1l-120.7-120.7c-13.5-13.5-13.5-35.4,0-48.9
			c13.5-13.5,35.4-13.5,48.9,0l120.7,120.7c13.5,13.5,13.5,35.4,0,48.9C1504.8,271.1,1495.9,274.5,1487.1,274.5z"/>
	</g>
	<g>
		<path class="st0" d="M1371.6,280.4c-8.8,0-17.7-3.4-24.4-10.1l-53.9-53.9c-13.5-13.5-13.5-35.4,0-48.9c13.5-13.5,35.4-13.5,48.9,0
			l53.9,53.9c13.5,13.5,13.5,35.4,0,48.9C1389.3,277.1,1380.5,280.4,1371.6,280.4z"/>
	</g>
	<g>
		<path class="st0" d="M757.5,630.3H602.8c-23.1,0-41.8-18.8-41.8-41.8v-65.8h-73.5c-23.1,0-41.8-18.8-41.8-41.8V326.2
			c0-23.1,18.8-41.8,41.8-41.8H561v-65.8c0-23.1,18.8-41.8,41.8-41.8h154.6c23.1,0,41.8,18.8,41.8,41.8v65.8H865
			c23.1,0,41.8,18.8,41.8,41.8v154.6c0,23.1-18.8,41.8-41.8,41.8h-65.8v65.8C799.3,611.5,780.5,630.3,757.5,630.3z M630.2,561.1
			h99.9V453.5h107.6v-99.9H730.1V246h-99.9v107.6H514.9v99.9h115.3V561.1z M865,353.6L865,353.6L865,353.6z"/>
	</g>
</g>
</svg>
