<svg xmlns="http://www.w3.org/2000/svg" width="42.073" height="46.489" viewBox="0 0 42.073 46.489">
  <g id="agendar_exames" transform="translate(-652.501 446.5)">
    <g id="Grupo_1309" data-name="Grupo 1309" transform="translate(652.501 -446.5)">
      <path id="Caminho_1882" data-name="Caminho 1882" d="M686.2-446.5H662.431a5.311,5.311,0,0,0-5.305,5.305v1.7h-1.315a3.315,3.315,0,0,0-3.31,3.315,3.314,3.314,0,0,0,3.31,3.31h1.315v4.685h-1.315a3.289,3.289,0,0,0-2.339.971,3.3,3.3,0,0,0-.971,2.344,3.316,3.316,0,0,0,3.31,3.315h1.315v4.685h-1.315a3.315,3.315,0,0,0-3.31,3.315,3.314,3.314,0,0,0,3.31,3.31h1.315v1.7a5.311,5.311,0,0,0,5.305,5.305h17.281a6.53,6.53,0,0,1-.849-1.75H662.431a3.559,3.559,0,0,1-3.555-3.555v-1.7h1.315a3.315,3.315,0,0,0,3.31-3.315,3.314,3.314,0,0,0-3.31-3.31h-1.315v-4.685h1.315a3.287,3.287,0,0,0,2.339-.971,3.294,3.294,0,0,0,.972-2.344,3.317,3.317,0,0,0-3.31-3.315h-1.315v-4.685h1.315a3.315,3.315,0,0,0,3.31-3.315,3.314,3.314,0,0,0-3.31-3.31h-1.315v-1.7a3.559,3.559,0,0,1,3.555-3.555H686.2a3.559,3.559,0,0,1,3.555,3.555v25.557a5.7,5.7,0,0,1,1.75.911v-26.467A5.311,5.311,0,0,0,686.2-446.5Zm-26.005,31.375a1.563,1.563,0,0,1,1.56,1.565,1.562,1.562,0,0,1-1.56,1.56h-4.38a1.563,1.563,0,0,1-1.56-1.565,1.562,1.562,0,0,1,1.56-1.56Zm0-11.315a1.564,1.564,0,0,1,1.56,1.565,1.557,1.557,0,0,1-.459,1.107,1.548,1.548,0,0,1-1.1.458h-4.38a1.564,1.564,0,0,1-1.56-1.565,1.557,1.557,0,0,1,.459-1.107,1.55,1.55,0,0,1,1.1-.458Zm0-11.31a1.563,1.563,0,0,1,1.56,1.565,1.562,1.562,0,0,1-1.56,1.56h-4.38a1.563,1.563,0,0,1-1.56-1.565,1.562,1.562,0,0,1,1.56-1.56Z" transform="translate(-652.501 446.5)" fill="#023464"/>
      <path id="Caminho_1883" data-name="Caminho 1883" d="M711.939-427.625H707a.875.875,0,0,0-.875.875.875.875,0,0,0,.875.875h4.938a.875.875,0,0,0,.875-.875A.875.875,0,0,0,711.939-427.625Z" transform="translate(-679.313 437.063)" fill="#023464"/>
      <path id="Caminho_1884" data-name="Caminho 1884" d="M711.939-405H707a.875.875,0,0,0-.875.875.875.875,0,0,0,.875.875h4.938a.875.875,0,0,0,.875-.875A.875.875,0,0,0,711.939-405Z" transform="translate(-679.313 425.75)" fill="#023464"/>
      <path id="Caminho_1885" data-name="Caminho 1885" d="M706.995-380.625a12.882,12.882,0,0,1,1.163-1.234c.166-.178.336-.349.509-.516H707a.875.875,0,0,0-.875.875A.875.875,0,0,0,706.995-380.625Z" transform="translate(-679.313 414.438)" fill="#023464"/>
      <path id="Caminho_1886" data-name="Caminho 1886" d="M689.257-431.833l-3.845,3.845-2.054-2.054a.875.875,0,0,0-1.238,0,.875.875,0,0,0,0,1.237l2.673,2.673a.875.875,0,0,0,.618.257.875.875,0,0,0,.618-.257l4.464-4.464a.874.874,0,0,0,0-1.237A.874.874,0,0,0,689.257-431.833Z" transform="translate(-667.183 439.295)" fill="#023464"/>
      <path id="Caminho_1887" data-name="Caminho 1887" d="M689.257-409.207l-3.845,3.845-2.054-2.054a.875.875,0,0,0-1.238,0,.875.875,0,0,0,0,1.237l2.673,2.673a.875.875,0,0,0,.618.257.875.875,0,0,0,.618-.257l4.464-4.464a.874.874,0,0,0,0-1.237A.874.874,0,0,0,689.257-409.207Z" transform="translate(-667.183 427.982)" fill="#023464"/>
      <path id="Caminho_1888" data-name="Caminho 1888" d="M689.257-386.582l-3.845,3.845-2.054-2.054a.875.875,0,0,0-1.238,0,.875.875,0,0,0,0,1.237l2.673,2.673a.875.875,0,0,0,.618.257.875.875,0,0,0,.618-.257l4.464-4.464a.874.874,0,0,0,0-1.237A.874.874,0,0,0,689.257-386.582Z" transform="translate(-667.183 416.67)" fill="#023464"/>
    </g>
    <g id="Grupo_1310" data-name="Grupo 1310" transform="translate(679.143 -415.441)">
      <path id="Caminho_1889" data-name="Caminho 1889" d="M713.5-368.952a7.724,7.724,0,0,1-7.715-7.715,7.724,7.724,0,0,1,7.715-7.716,7.724,7.724,0,0,1,7.716,7.716A7.724,7.724,0,0,1,713.5-368.952Zm0-13.716a6.008,6.008,0,0,0-6,6,6.008,6.008,0,0,0,6,6,6.008,6.008,0,0,0,6-6A6.008,6.008,0,0,0,713.5-382.669Z" transform="translate(-705.785 384.383)" fill="#023464"/>
    </g>
    <g id="Grupo_1311" data-name="Grupo 1311" transform="translate(686.001 -411.155)">
      <path id="Caminho_1890" data-name="Caminho 1890" d="M722.073-369.809a.854.854,0,0,1-.606-.251l-1.715-1.714a.859.859,0,0,1-.251-.606v-2.572a.857.857,0,0,1,.857-.857.857.857,0,0,1,.857.857v2.217l1.463,1.463a.857.857,0,0,1,0,1.212A.853.853,0,0,1,722.073-369.809Z" transform="translate(-719.501 375.81)" fill="#023464"/>
    </g>
  </g>
</svg>
