<svg xmlns="http://www.w3.org/2000/svg" width="24.537" height="26.768" viewBox="0 0 24.537 26.768">
  <g id="ícone_dicon" data-name="ícone dicon" transform="translate(0.001 0)">
    <path id="Caminho_7324" data-name="Caminho 7324" d="M24.527,7.348v0a.491.491,0,0,0-.043-.121l-.016-.029a.494.494,0,0,0-.079-.106L17.375.147a.5.5,0,0,0-.108-.079L17.24.054A.5.5,0,0,0,17.017,0H6.942A2.5,2.5,0,0,0,4.437,2.48v9.639H1.449A1.443,1.443,0,0,0,0,13.553v8.394a1.443,1.443,0,0,0,1.449,1.434H4.437v.907a2.5,2.5,0,0,0,2.505,2.48h15.09a2.5,2.5,0,0,0,2.5-2.48V7.443a.5.5,0,0,0-.01-.1m-1.718-.405H19.016a1.487,1.487,0,0,1-1.493-1.478V1.711Zm-21.8,15V13.553a.435.435,0,0,1,.437-.432H16.075a.435.435,0,0,1,.437.432v8.394a.435.435,0,0,1-.437.432H1.449a.435.435,0,0,1-.437-.432m21.02,3.819H6.942a1.487,1.487,0,0,1-1.493-1.478v-.907H16.075a1.443,1.443,0,0,0,1.449-1.434V13.553a1.443,1.443,0,0,0-1.449-1.434H5.449V2.48A1.487,1.487,0,0,1,6.942,1h9.57V5.465a2.5,2.5,0,0,0,2.505,2.48h4.508V24.288a1.487,1.487,0,0,1-1.493,1.478" transform="translate(-0.001 0)" fill="#25cf79"/>
    <text id="DICON" transform="translate(2.391 18.903)" fill="#25cf79" font-size="3" font-family="SegoeUI, Segoe UI"><tspan x="0" y="0">DI</tspan><tspan y="0" letter-spacing="-0.019em">C</tspan><tspan y="0">ON</tspan></text>
  </g>
</svg>
