<svg xmlns="http://www.w3.org/2000/svg" width="12.238" height="13.987" viewBox="0 0 12.238 13.987">
  <g id="Grupo_1315" data-name="Grupo 1315" transform="translate(-334.919 398.004)">
    <path id="Caminho_1892" data-name="Caminho 1892" d="M347.157-386.028v.7a1.312,1.312,0,0,1-1.311,1.311H336.23a1.312,1.312,0,0,1-1.311-1.311v-.7a3.673,3.673,0,0,1,3.672-3.671c.787,0,1.161.437,2.448.437s1.663-.437,2.448-.437A3.672,3.672,0,0,1,347.157-386.028Zm-.958.26a2.865,2.865,0,0,0-2.533-3.1,9.553,9.553,0,0,1-2.627.574,9.645,9.645,0,0,1-2.628-.574,2.865,2.865,0,0,0-2.533,3.1v.919H346.2Zm-9.095-8.3A3.935,3.935,0,0,1,341.038-398a3.935,3.935,0,0,1,3.934,3.934,3.935,3.935,0,0,1-3.934,3.934A3.935,3.935,0,0,1,337.1-394.07Zm.784,0a3.155,3.155,0,0,0,3.15,3.15,3.155,3.155,0,0,0,3.15-3.15,3.155,3.155,0,0,0-3.15-3.15A3.155,3.155,0,0,0,337.888-394.07Z" fill="#023668"/>
  </g>
</svg>
