<svg xmlns="http://www.w3.org/2000/svg" width="35.793" height="44.95" viewBox="0 0 35.793 44.95">
  <g id="Objeto_Inteligente_de_Vetor" data-name="Objeto Inteligente de Vetor" transform="translate(-4.039 -2.757)">
    <path id="Color_Overlay" data-name="Color Overlay" d="M6.237,47.949A2.244,2.244,0,0,1,4,45.7V5.247A2.244,2.244,0,0,1,6.237,3H37.555a2.244,2.244,0,0,1,2.237,2.247V45.7a2.244,2.244,0,0,1-2.237,2.247Zm0-41.578V44.578A1.121,1.121,0,0,0,7.355,45.7H36.437a1.121,1.121,0,0,0,1.118-1.124V6.371a1.12,1.12,0,0,0-1.118-1.124H29.726a1.121,1.121,0,0,0-1.119,1.124V7.494A2.244,2.244,0,0,1,26.37,9.743H17.422a2.244,2.244,0,0,1-2.237-2.248V6.371a1.121,1.121,0,0,0-1.119-1.124H7.355A1.12,1.12,0,0,0,6.237,6.371Zm11.185,0a1.121,1.121,0,0,0,1.119,1.123h6.71a1.124,1.124,0,0,0,0-2.247h-6.71A1.121,1.121,0,0,0,17.422,6.371ZM11.83,41.207a1.124,1.124,0,0,1,0-2.247H31.963a1.124,1.124,0,0,1,0,2.247Zm0-6.742a1.124,1.124,0,0,1,0-2.248H31.963a1.124,1.124,0,0,1,0,2.248Zm11.062-7.873a1.119,1.119,0,0,1-.962-.845l-1.5-6.043-.575,1.157a2.237,2.237,0,0,1-2,1.242H14.066a1.124,1.124,0,0,1,0-2.247h3.092a1.118,1.118,0,0,0,1-.622l1.618-3.252a1.117,1.117,0,0,1,2.086.23l1.5,6.043.576-1.157a2.235,2.235,0,0,1,2-1.242h3.783a1.124,1.124,0,0,1,0,2.247H26.635a1.118,1.118,0,0,0-1,.622l-1.619,3.252a1.117,1.117,0,0,1-1,.621A1.154,1.154,0,0,1,22.892,26.591Z" transform="translate(0.04 -0.243)" fill="#023668"/>
  </g>
</svg>
