<?xml version="1.0" encoding="UTF-8"?>
<svg xmlns="http://www.w3.org/2000/svg" xmlns:xlink="http://www.w3.org/1999/xlink" width="35pt" height="35pt" viewBox="0 0 35 35" version="1.1">
<g id="surface1">
<path style=" stroke:none;fill-rule:nonzero;fill:#1565C0;fill-opacity:1;" d="M 17.5 1.398438 C 8.617188 1.398438 1.398438 8.617188 1.398438 17.5 C 1.398438 26.382813 8.617188 33.601563 17.5 33.601563 C 26.382813 33.601563 33.601563 26.382813 33.601563 17.5 C 33.601563 8.617188 26.382813 1.398438 17.5 1.398438 Z M 17.5 2.800781 C 25.625 2.800781 32.199219 9.375 32.199219 17.5 C 32.199219 25.625 25.625 32.199219 17.5 32.199219 C 9.375 32.199219 2.800781 25.625 2.800781 17.5 C 2.800781 9.375 9.375 2.800781 17.5 2.800781 Z M 17.488281 4.890625 C 17.101563 4.894531 16.792969 5.214844 16.800781 5.601563 L 16.800781 15.523438 C 15.960938 15.816406 15.402344 16.609375 15.398438 17.5 C 15.402344 17.8125 15.472656 18.121094 15.605469 18.402344 L 11.40625 22.605469 C 11.222656 22.78125 11.148438 23.042969 11.210938 23.285156 C 11.277344 23.53125 11.46875 23.722656 11.714844 23.789063 C 11.957031 23.851563 12.21875 23.777344 12.394531 23.59375 L 16.597656 19.394531 C 16.878906 19.527344 17.1875 19.597656 17.5 19.601563 C 18.660156 19.601563 19.601563 18.660156 19.601563 17.5 C 19.597656 16.609375 19.039063 15.820313 18.199219 15.523438 L 18.199219 5.601563 C 18.203125 5.410156 18.128906 5.230469 17.996094 5.09375 C 17.859375 4.960938 17.679688 4.886719 17.488281 4.890625 Z "/>
</g>
</svg>
