<svg xmlns="http://www.w3.org/2000/svg" width="31.421" height="40.64" viewBox="0 0 31.421 40.64">
  <g id="ícone_médico" data-name="ícone médico" transform="translate(1.058 48.311)">
    <g id="Ícone_Médico-2" data-name="Ícone Médico" transform="translate(-215.978 -516.742)">
      <path id="Caminho_1864" data-name="Caminho 1864" d="M215.67,619.81v-5.539A9.359,9.359,0,0,1,222,605.416l4.348-1.489v-1.746" transform="translate(0 -111.489)" fill="none" stroke="#3d5a80" stroke-linecap="round" stroke-miterlimit="10" stroke-width="1.5"/>
      <path id="Caminho_1865" data-name="Caminho 1865" d="M345.345,619.81v-5.539a9.359,9.359,0,0,0-6.327-8.855l-4.348-1.489v-1.746" transform="translate(-99.753 -111.489)" fill="none" stroke="#3d5a80" stroke-linecap="round" stroke-miterlimit="10" stroke-width="1.5"/>
      <path id="Caminho_1866" data-name="Caminho 1866" d="M257.243,514.357l.083,1.441H257.2a1.294,1.294,0,0,0-1.258,1.6l.071.291a1.964,1.964,0,0,0,1.584,1.473l.309,3a4.968,4.968,0,0,0,1.279,2.849l2.452,2.675a3.743,3.743,0,0,0,2.76,1.214h0a3.743,3.743,0,0,0,2.691-1.142l2.482-2.568a4.968,4.968,0,0,0,1.365-2.9l.359-3.2a1.96,1.96,0,0,0,1.317-1.406l.071-.291a1.289,1.289,0,0,0-1.125-1.583l.006-1.633" transform="translate(-33.727 -37.722)" fill="none" stroke="#3d5a80" stroke-linecap="round" stroke-miterlimit="10" stroke-width="1.5"/>
      <line id="Linha_28" data-name="Linha 28" x2="5" transform="translate(218.67 507.181)" fill="none" stroke="#3d5a80" stroke-linecap="round" stroke-miterlimit="10" stroke-width="1.5"/>
      <line id="Linha_29" data-name="Linha 29" y2="3" transform="translate(222.67 504.181)" fill="none" stroke="#3d5a80" stroke-linecap="round" stroke-miterlimit="10" stroke-width="1.5"/>
      <path id="Caminho_1867" data-name="Caminho 1867" d="M281.872,612.72l1.864,2.887a2.822,2.822,0,0,0,2.371,1.291h0a2.822,2.822,0,0,0,2.373-1.294l1.857-2.884" transform="translate(-55.495 -120.323)" fill="none" stroke="#3d5a80" stroke-linecap="round" stroke-miterlimit="10" stroke-width="1.5"/>
      <path id="Caminho_1868" data-name="Caminho 1868" d="M239.611,636.106H237.67v-4.327a3.6,3.6,0,0,1,3.6-3.6h.4a3.6,3.6,0,0,1,3.6,3.6v4.327h-2.264" transform="translate(-18.442 -133.284)" fill="none" stroke="#3d5a80" stroke-linecap="round" stroke-miterlimit="10" stroke-width="1.5"/>
      <path id="Caminho_1869" data-name="Caminho 1869" d="M258.454,604.756a3.808,3.808,0,0,1,3.808-3.808" transform="translate(-35.864 -110.455)" fill="none" stroke="#3d5a80" stroke-linecap="round" stroke-miterlimit="10" stroke-width="1.5"/>
      <path id="Caminho_1870" data-name="Caminho 1870" d="M335.123,601.948a3.808,3.808,0,0,1,3.808,3.808v4.478" transform="translate(-100.133 -111.294)" fill="none" stroke="#3d5a80" stroke-linecap="round" stroke-miterlimit="10" stroke-width="1.5"/>
      <path id="Caminho_1871" data-name="Caminho 1871" d="M349.469,657.708a2.619,2.619,0,1,1-2.619-2.619A2.619,2.619,0,0,1,349.469,657.708Z" transform="translate(-107.769 -155.84)" fill="none" stroke="#3d5a80" stroke-linecap="round" stroke-miterlimit="10" stroke-width="1.5"/>
      <line id="Linha_30" data-name="Linha 30" x2="2" transform="translate(237.67 502.181)" fill="none" stroke="#3d5a80" stroke-linecap="round" stroke-miterlimit="10" stroke-width="1.5"/>
      <path id="Caminho_1872" data-name="Caminho 1872" d="M278.065,474.842H263.67v-2.5a3.158,3.158,0,0,1,3.158-3.158h8.079a3.158,3.158,0,0,1,3.158,3.158Z" transform="translate(-40.237)" fill="none" stroke="#3d5a80" stroke-linecap="round" stroke-miterlimit="10" stroke-width="1.5"/>
    </g>
  </g>
</svg>
