<svg xmlns="http://www.w3.org/2000/svg" width="49.743" height="53.166" viewBox="0 0 49.743 53.166">
  <g id="Objeto_Inteligente_de_Vetor" data-name="Objeto Inteligente de Vetor" transform="translate(-0.096 -3.262)">
    <path id="Color_Overlay" data-name="Color Overlay" d="M6.138,56.909a3.254,3.254,0,0,1-3.277-3.222V51.5a3.254,3.254,0,0,1,3.277-3.222H8.073V36.9a16.429,16.429,0,0,1,32.854,0V48.274h1.934A3.253,3.253,0,0,1,46.138,51.5v2.191a3.254,3.254,0,0,1-3.277,3.222ZM4.92,51.5v2.191a1.209,1.209,0,0,0,1.218,1.2H42.861a1.208,1.208,0,0,0,1.217-1.2V51.5a1.208,1.208,0,0,0-1.217-1.2H6.138A1.209,1.209,0,0,0,4.92,51.5Zm22.816-3.222H38.867V36.9a14.37,14.37,0,0,0-28.735,0V48.274H21.263V44.2a6.5,6.5,0,0,1-2.16.37,1.021,1.021,0,0,1-1.03-1.013V32.949a1.021,1.021,0,0,1,1.03-1.013,6.45,6.45,0,0,1,5.4,2.9,6.447,6.447,0,0,1,5.395-2.9,1.021,1.021,0,0,1,1.03,1.013V43.557a1.021,1.021,0,0,1-1.03,1.013,6.5,6.5,0,0,1-2.158-.37Zm-3.26-6.564a6.289,6.289,0,0,1-.5.652c-.043.049-.092.091-.135.139a6.284,6.284,0,0,1-.455.448c-.024.021-.043.045-.067.067v5.257h2.353V43.016c-.024-.022-.044-.046-.068-.067a6.372,6.372,0,0,1-.464-.458c-.04-.043-.085-.083-.123-.127a6.293,6.293,0,0,1-.5-.657c-.006-.01-.014-.017-.02-.026C24.493,41.691,24.484,41.7,24.476,41.711Zm1.053-3.457a4.261,4.261,0,0,0,1.782,3.456,4.381,4.381,0,0,0,1.553.715V34.081A4.315,4.315,0,0,0,25.529,38.254Zm-5.4,4.172a4.343,4.343,0,0,0,1.548-.712,4.275,4.275,0,0,0,1.758-2.952,4.154,4.154,0,0,0,.031-.508,4.315,4.315,0,0,0-3.336-4.172Zm-7.175-7.53a9.372,9.372,0,0,1,.121-1.5.985.985,0,0,1,1.133-.807.975.975,0,0,1,.822,1.114,7.43,7.43,0,0,0-.1,1.193.99.99,0,0,1-1.979,0Zm2.012-4.13a.963.963,0,0,1-.234-1.356,9.757,9.757,0,0,1,6.24-3.869.989.989,0,0,1,1.143.795.976.976,0,0,1-.808,1.124,7.747,7.747,0,0,0-4.96,3.077,1,1,0,0,1-1.381.229ZM43.3,17.215A1.478,1.478,0,0,1,43.4,15.1l3.429-3.049a1.541,1.541,0,0,1,2.147.105,1.476,1.476,0,0,1-.107,2.11l-3.428,3.05a1.54,1.54,0,0,1-2.147-.105Zm-39.742.106L.128,14.273a1.476,1.476,0,0,1-.106-2.11,1.537,1.537,0,0,1,2.146-.105l3.425,3.048a1.476,1.476,0,0,1,.107,2.11,1.54,1.54,0,0,1-2.146.105ZM22.9,10.1V5.315a1.6,1.6,0,0,1,3.2,0V10.1a1.6,1.6,0,0,1-3.2,0Z" transform="translate(0.467 -0.481)" fill="#023668"/>
  </g>
</svg>
