<svg xmlns="http://www.w3.org/2000/svg" xmlns:xlink="http://www.w3.org/1999/xlink" width="113" height="242" viewBox="0 0 113 242">
  <defs>
    <clipPath id="clip-empty">
      <rect width="113" height="242"/>
    </clipPath>
  </defs>
  <g id="empty" clip-path="url(#clip-empty)">
    <g id="Grupo_1" data-name="Grupo 1">
      <g id="undraw_medical_care_movn" transform="translate(-15 6.988)">
        <path id="Caminho_20" data-name="Caminho 20" d="M143.408,83.681l-24.514,4.152a2.481,2.481,0,0,1-2.808-1.782c-1.771-6.392-5.474-14.732-1.879-18.918a6.878,6.878,0,0,1,7.244-6.154h0c4.379-6.855,11.674-5.826,16.6-1.545,4.962,1.712,6.832,4.754,6.178,8.881a9.551,9.551,0,0,1,3.5,6.309,9.112,9.112,0,0,1-2.493,7.088Z" transform="translate(-60.257 -54.442)" fill="#2f2e41"/>
        <path id="Caminho_21" data-name="Caminho 21" d="M139.6,102.981l-19-1.118c1.862-4.275,2.606-8.391,1.863-12.3h14.16C136.583,92.565,138.075,97.753,139.6,102.981Z" transform="translate(-60.257 -54.442)" fill="#9f616a"/>
        <path id="Caminho_22" data-name="Caminho 22" d="M116.72,278.586l-.779,10.656a3.392,3.392,0,0,0,3.588,3.634l5.473-.332a1.73,1.73,0,0,0,1.574-2.147l-3.038-12.152Z" transform="translate(-60.257 -54.442)" fill="#e6e6e6"/>
        <path id="Caminho_23" data-name="Caminho 23" d="M134.44,278.244,131.4,290.4a1.73,1.73,0,0,0,1.574,2.147l5.473.332a3.392,3.392,0,0,0,3.588-3.634l-.779-10.656Z" transform="translate(-60.257 -54.442)" fill="#e6e6e6"/>
        <path id="Caminho_24" data-name="Caminho 24" d="M81.354,225.623l-7.386-.741-7.354-78.6-2.779,78.35-7.257-.26L44.348,115.857H91.077Z" fill="#f1f1f3"/>
        <circle id="Elipse_5" data-name="Elipse 5" cx="14.113" cy="14.113" r="14.113" transform="translate(55.539 11.422)" fill="#9f616a"/>
        <path id="Caminho_25" data-name="Caminho 25" d="M145.814,73.235a42.132,42.132,0,0,0-16.834.131c-3.487,1.142-7.675,1.036-12.332.1V63.945l25.143.453Z" transform="translate(-60.257 -54.442)" fill="#2f2e41"/>
        <path id="Caminho_26" data-name="Caminho 26" d="M139.3,91.3c-6.174,2.568-12.648,2.464-19.386,0,1.961-3.347-.97-5.968-2.475-9.346l25.16-.748C140.676,84.142,137.837,87.609,139.3,91.3Z" transform="translate(-60.257 -54.442)" fill="#fff"/>
        <rect id="Retângulo_5" data-name="Retângulo 5" width="0.386" height="3.221" transform="matrix(0.64, -0.768, 0.768, 0.64, 55.204, 25.881)" fill="#fff"/>
        <rect id="Retângulo_6" data-name="Retângulo 6" width="8.067" height="0.386" transform="matrix(0.537, -0.844, 0.844, 0.537, 78.468, 36.559)" fill="#fff"/>
        <rect id="Retângulo_7" data-name="Retângulo 7" width="0.386" height="8.067" transform="matrix(0.844, -0.537, 0.537, 0.844, 55.576, 29.961)" fill="#fff"/>
        <path id="Caminho_27" data-name="Caminho 27" d="M103.078,144.343l-10.806-6.707,9.216-26.992a12.733,12.733,0,0,1,5.566-6.611l3.1-1.8.27,27.229Z" transform="translate(-60.257 -54.442)" fill="#f1f1f3"/>
        <path id="Caminho_28" data-name="Caminho 28" d="M149.788,157.452l-1.6-13.694a48.042,48.042,0,0,1,4.076-20.655l1.491-20.122-16.4-6.707c-.05.334-.093.668-.141,1l-7.684,3.842-7.494-1.7.041-2.4-14.905,6.707c4.929,22.916,2.241,46.714-6.236,74.822l19.636,5.369.163-9.429,17.5-1.25c.18,3.059.325,6.064.409,9,9.875,3.635,10.214,3.575,19.211-1.63A105.577,105.577,0,0,1,149.788,157.452Z" transform="translate(-60.257 -54.442)" fill="#f1f1f3"/>
        <path id="Caminho_29" data-name="Caminho 29" d="M114.739,86.547l-10.061-3.354L88.585,64.459,93.5,48.539l22.358,31.3Z" fill="#f1f1f3"/>
        <path id="Caminho_30" data-name="Caminho 30" d="M143.465,155.493a2.8,2.8,0,0,0,3.343,2.109l8.541-1.934-1.234-5.451-8.541,1.934a2.8,2.8,0,0,0-2.109,3.343Z" transform="translate(-60.257 -54.442)" fill="#e6e6e6"/>
        <path id="Caminho_31" data-name="Caminho 31" d="M151.148,149.187l4.844,8.943c8.148-2.273,15.209-9.437,21.985-17.886l-1.863-5.962-11.552,2.981Z" transform="translate(-60.257 -54.442)" fill="#f1f1f3"/>
        <path id="Caminho_32" data-name="Caminho 32" d="M27.73,66.692l9.3,1.661L58.286,98.577,46.993,95.919Z" fill="#e6e6e6"/>
        <path id="Caminho_33" data-name="Caminho 33" d="M86.337,120.765a.791.791,0,0,0-.649,1.225l19.869,30.146a.788.788,0,0,0,.479.334l9.244,2.175a.79.79,0,0,0,.827-1.223L94.292,122.4a.785.785,0,0,0-.507-.323l-7.3-1.3a.857.857,0,0,0-.149-.014Z" transform="translate(-60.257 -54.442)" fill="#3f3d56"/>
        <path id="Caminho_34" data-name="Caminho 34" d="M98.731,142.319l.552,5.562,8.714-.865a2.795,2.795,0,1,0-.552-5.562Z" transform="translate(-60.257 -54.442)" fill="#e6e6e6"/>
        <path id="Caminho_35" data-name="Caminho 35" d="M91.154,141.674a7.188,7.188,0,0,0,7.18,7.14h1.433l1.043-8.693-8.637-3.109Z" transform="translate(-60.257 -54.442)" fill="#f1f1f3"/>
        <path id="Caminho_36" data-name="Caminho 36" d="M81.655,27.726l-.273-.273.413-.413,2.465-2.876.293.251L82.078,27.3Z" fill="#fff"/>
      </g>
    </g>
  </g>
</svg>
