<svg xmlns="http://www.w3.org/2000/svg" xmlns:xlink="http://www.w3.org/1999/xlink" width="358" height="350" viewBox="0 0 358 350">
  <defs>
    <clipPath id="clip-path">
      <rect id="Retângulo_1" data-name="Retângulo 1" width="351" height="334" transform="translate(0 6)" fill="#fff" stroke="#707070" stroke-width="1"/>
    </clipPath>
    <clipPath id="clip-empty">
      <rect width="358" height="350"/>
    </clipPath>
  </defs>
  <g id="empty" clip-path="url(#clip-empty)">
    <g id="Grupo_de_máscara_1" data-name="Grupo de máscara 1" clip-path="url(#clip-path)">
      <g id="exame_empty" transform="translate(0 54.318)">
        <rect id="Retângulo_2" data-name="Retângulo 2" width="45.181" height="50.521" transform="translate(62.25 110.078)" fill="#ccc"/>
        <path id="Caminho_1" data-name="Caminho 1" d="M39.249,236.586h-23L13.783,216.87h27.93Z" fill="#e6e6e6"/>
        <path id="Caminho_2" data-name="Caminho 2" d="M156.38,288.456l-.776,10.611a3.378,3.378,0,0,0,3.573,3.618l5.45-.33a1.723,1.723,0,0,0,1.567-2.138l-3.026-12.1Z" transform="translate(-70.944 -66.15)" fill="#e6e6e6"/>
        <path id="Caminho_3" data-name="Caminho 3" d="M201.97,294.73c6.415,1.5,11,3.634,14.007,6.52a6.176,6.176,0,0,0,3.953,1.694,10.1,10.1,0,0,0,4.592-.631h0a1.82,1.82,0,0,0,1.078-1.5,1.852,1.852,0,0,0-.776-1.711l-15.214-10.825-6.462,2.585-1.507,1.508a1.493,1.493,0,0,0,.329,2.359Z" transform="translate(-70.944 -66.15)" fill="#e6e6e6"/>
        <path id="Caminho_4" data-name="Caminho 4" d="M182.229,121.474l-43.486-.4a37.148,37.148,0,0,1,4.8-18.119c2.116-3.655,2.07-7.633,1.56-10.985a14.77,14.77,0,0,1,5.108-13.756,16.4,16.4,0,0,1,11.025-3.648l.844.035a16.433,16.433,0,0,1,13.5,8.12,13.689,13.689,0,0,1,1.627,8.338,13.808,13.808,0,0,0,1.927,8.216C181.8,105.345,182.378,113.114,182.229,121.474Z" transform="translate(-70.944 -66.15)" fill="#2f2e41"/>
        <path id="Caminho_5" data-name="Caminho 5" d="M211.324,288.843l-8.535,2.226-41.56-90.542,2.6,88.315h-8.535c-9.12-41.55-25.585-89.5-18.183-104.642l44.158-2.6Z" transform="translate(-70.944 -66.15)" fill="#f1f1f3"/>
        <circle id="Elipse_1" data-name="Elipse 1" cx="11.503" cy="11.503" r="11.503" transform="translate(78.411 17.119)" fill="#ffb9b9"/>
        <path id="Caminho_6" data-name="Caminho 6" d="M170.877,115.924l-18.925-1.113c1.855-4.257,2.6-8.356,1.855-12.245h14.1C167.876,105.551,169.363,110.717,170.877,115.924Z" transform="translate(-70.944 -66.15)" fill="#ffb9b9"/>
        <path id="Caminho_7" data-name="Caminho 7" d="M111.808,118.793l-41.56,2.969L74.515,48.1l7.236-2.041,8.163,1.855,8.163-4.082,5.2,1.856Z" fill="#f1f1f3"/>
        <path id="Caminho_8" data-name="Caminho 8" d="M148.242,238.006l-28.387-6.494c8.441-27.991,23.648-92.027,18.739-114.847l14.843-6.679Z" transform="translate(-70.944 -66.15)" fill="#e6e6e6"/>
        <path id="Caminho_9" data-name="Caminho 9" d="M134.512,157.113l-10.761-6.679,9.177-26.879a12.68,12.68,0,0,1,5.543-6.584l3.092-1.79-1.855,27.088Z" transform="translate(-70.944 -66.15)" fill="#e6e6e6"/>
        <path id="Caminho_10" data-name="Caminho 10" d="M207.428,231.884c-8.96,5.184-31.355,8.073-41.189,4.453-.724-25.29-2.143-96.827,2.412-127.092l16.327,6.679-1.484,20.038C175.688,153.1,198.354,212.806,207.428,231.884Z" transform="translate(-70.944 -66.15)" fill="#e6e6e6"/>
        <path id="Caminho_11" data-name="Caminho 11" d="M135.185,87.623l-10.019-3.34L111.808,69.069l2.227-19.3L136.3,80.944Z" fill="#e6e6e6"/>
        <path id="Caminho_12" data-name="Caminho 12" d="M174.73,168.216a2.787,2.787,0,0,0,3.329,2.1l8.5-1.926-1.229-5.429-8.5,1.926a2.784,2.784,0,0,0-2.1,3.329Z" transform="translate(-70.944 -66.15)" fill="#ffb9b9"/>
        <path id="Caminho_13" data-name="Caminho 13" d="M170.877,91.8a24.506,24.506,0,0,0-18.925-.371l-2.6-9.277H173.1Z" transform="translate(-70.944 -66.15)" fill="#2f2e41"/>
        <path id="Caminho_14" data-name="Caminho 14" d="M182.38,161.936l4.824,8.906c8.114-2.263,15.146-9.4,21.893-17.811l-1.855-5.937-11.5,2.969Z" transform="translate(-70.944 -66.15)" fill="#e6e6e6"/>
        <path id="Caminho_15" data-name="Caminho 15" d="M178.855,143.569h-1.484c0-20.993-4.322-35.623-8.535-35.623l-.371-1.484c3.778,0,6.186,6.089,7.541,11.2C177.843,124.583,178.855,133.785,178.855,143.569Z" transform="translate(-70.944 -66.15)" fill="#3f3d56"/>
        <path id="Caminho_16" data-name="Caminho 16" d="M144.717,138.373h-1.484c0-19.226,4.352-31.17,10.761-31.17l-.371,1.484C149.189,108.688,144.717,117.867,144.717,138.373Z" transform="translate(-70.944 -66.15)" fill="#3f3d56"/>
        <circle id="Elipse_2" data-name="Elipse 2" cx="3.711" cy="3.711" r="3.711" transform="translate(103.459 74.079)" fill="#3f3d56"/>
        <path id="Caminho_17" data-name="Caminho 17" d="M138.779,147.279H137.3c0-5.32,3-9.648,6.679-9.648v1.484C141.11,139.116,138.779,142.778,138.779,147.279Z" transform="translate(-70.944 -66.15)" fill="#3f3d56"/>
        <path id="Caminho_18" data-name="Caminho 18" d="M150.654,147.279h-1.484c0-4.5-2.33-8.164-5.2-8.164v-1.484C147.657,137.631,150.654,141.959,150.654,147.279Z" transform="translate(-70.944 -66.15)" fill="#3f3d56"/>
        <circle id="Elipse_3" data-name="Elipse 3" cx="1.484" cy="1.484" r="1.484" transform="translate(77.484 80.016)" fill="#3f3d56"/>
        <circle id="Elipse_4" data-name="Elipse 4" cx="1.484" cy="1.484" r="1.484" transform="translate(65.609 80.016)" fill="#3f3d56"/>
        <path id="Caminho_19" data-name="Caminho 19" d="M48.54,67.851,57.8,69.5,78.968,99.6,67.723,96.956Z" fill="#f1f1f3"/>
        <path id="Caminho_20" data-name="Caminho 20" d="M117.841,133.633a.788.788,0,0,0-.646,1.22l19.786,30.02a.785.785,0,0,0,.477.333l9.206,2.166a.786.786,0,0,0,.823-1.218l-21.724-30.888a.782.782,0,0,0-.5-.322l-7.268-1.3a.854.854,0,0,0-.148-.013Z" transform="translate(-70.944 -66.15)" fill="#3f3d56"/>
        <path id="Caminho_21" data-name="Caminho 21" d="M130.183,155.1l.55,5.539,8.677-.861a2.783,2.783,0,0,0-.55-5.539Z" transform="translate(-70.944 -66.15)" fill="#ffb9b9"/>
        <path id="Caminho_22" data-name="Caminho 22" d="M122.638,154.455a7.158,7.158,0,0,0,7.149,7.11h1.427l1.039-8.657-8.6-3.1Z" transform="translate(-70.944 -66.15)" fill="#e6e6e6"/>
        <rect id="Retângulo_3" data-name="Retângulo 3" width="169.225" height="89.13" transform="translate(181.775)" fill="#e6e6e6"/>
        <path id="Caminho_23" data-name="Caminho 23" d="M257.648,150.351H417.014V71.079H257.648Z" transform="translate(-70.944 -66.15)" fill="#fff"/>
        <rect id="Retângulo_4" data-name="Retângulo 4" width="56.682" height="56.682" transform="translate(199.027 16.43)" fill="#3f3d56"/>
        <circle id="Elipse_5" data-name="Elipse 5" cx="1.643" cy="1.643" r="1.643" transform="translate(240.511 39.02)" fill="#f1f1f3"/>
        <circle id="Elipse_6" data-name="Elipse 6" cx="1.643" cy="1.643" r="1.643" transform="translate(234.35 33.27)" fill="#f1f1f3"/>
        <path id="Caminho_24" data-name="Caminho 24" d="M306.115,106.813a3.265,3.265,0,0,0-1.711.485,10.319,10.319,0,0,0-1.588-1.863c.007-.088.013-.176.013-.265a3.284,3.284,0,0,0-5.564-2.365,10.066,10.066,0,0,0-2.654-.023c0-.026,0-.051,0-.077a3.286,3.286,0,1,0-5.446,2.472,10.328,10.328,0,0,0-1.489,1.575,3.286,3.286,0,1,0-2.1,5.811h.01c-.005.137-.01.273-.01.411a10.285,10.285,0,0,0,.3,2.452,6.159,6.159,0,1,0,8.038,7.632,10.257,10.257,0,0,0,6.712-1,3.286,3.286,0,1,0,4.309-4.309,10.21,10.21,0,0,0,1.17-4.369h.01a3.286,3.286,0,1,0,0-6.572Z" transform="translate(-70.944 -66.15)" fill="#f1f1f3"/>
        <rect id="Retângulo_5" data-name="Retângulo 5" width="16.43" height="2.464" transform="translate(217.921 15.197)" fill="#e6e6e6"/>
        <rect id="Retângulo_6" data-name="Retângulo 6" width="56.682" height="56.682" transform="translate(271.317 16.43)" fill="#3f3d56"/>
        <circle id="Elipse_7" data-name="Elipse 7" cx="0.739" cy="0.739" r="0.739" transform="translate(309.68 53.396)" fill="#f1f1f3"/>
        <circle id="Elipse_8" data-name="Elipse 8" cx="0.739" cy="0.739" r="0.739" transform="translate(306.907 50.808)" fill="#f1f1f3"/>
        <path id="Caminho_25" data-name="Caminho 25" d="M378.22,120.285a1.469,1.469,0,0,0-.77.218,4.643,4.643,0,0,0-.715-.838c0-.039.006-.079.006-.119a1.478,1.478,0,0,0-2.5-1.064,4.53,4.53,0,0,0-1.195-.01c0-.012,0-.023,0-.035a1.479,1.479,0,1,0-2.451,1.112,4.645,4.645,0,0,0-.67.709,1.479,1.479,0,1,0-.946,2.615h0c0,.061,0,.123,0,.185a4.628,4.628,0,0,0,.134,1.1,2.771,2.771,0,1,0,3.617,3.435,4.616,4.616,0,0,0,3.021-.448,1.479,1.479,0,1,0,1.939-1.939,4.6,4.6,0,0,0,.526-1.966h0a1.479,1.479,0,0,0,0-2.957Z" transform="translate(-70.944 -66.15)" fill="#f1f1f3"/>
        <circle id="Elipse_9" data-name="Elipse 9" cx="0.739" cy="0.739" r="0.739" transform="translate(315.48 39.366)" fill="#f1f1f3"/>
        <circle id="Elipse_10" data-name="Elipse 10" cx="0.739" cy="0.739" r="0.739" transform="translate(317.219 35.996)" fill="#f1f1f3"/>
        <path id="Caminho_26" data-name="Caminho 26" d="M386.311,103.231a1.469,1.469,0,0,0-.419-.682,4.644,4.644,0,0,0,.613-.915c.039-.008.078-.016.116-.027a1.478,1.478,0,0,0,.345-2.7,4.532,4.532,0,0,0-.314-1.153l.034-.008a1.479,1.479,0,1,0-1.735-2.057,4.646,4.646,0,0,0-.864-.453,1.479,1.479,0,1,0-2.773-.2l0,0c-.06.014-.12.029-.179.046a4.629,4.629,0,0,0-1.026.428,2.771,2.771,0,1,0-2.325,4.412,4.616,4.616,0,0,0,1.25,2.786,1.479,1.479,0,1,0,2.392,1.341,4.594,4.594,0,0,0,2.035-.026v0a1.479,1.479,0,0,0,2.847-.8Z" transform="translate(-70.944 -66.15)" fill="#f1f1f3"/>
        <circle id="Elipse_11" data-name="Elipse 11" cx="0.739" cy="0.739" r="0.739" transform="translate(286.845 29.319)" fill="#f1f1f3"/>
        <circle id="Elipse_12" data-name="Elipse 12" cx="0.739" cy="0.739" r="0.739" transform="translate(283.064 29.622)" fill="#f1f1f3"/>
        <path id="Caminho_27" data-name="Caminho 27" d="M356.409,98.529a1.469,1.469,0,0,0-.358.716,4.644,4.644,0,0,0-1.1-.038c-.027-.029-.054-.058-.084-.085a1.478,1.478,0,0,0-2.474,1.132,4.53,4.53,0,0,0-.813.875l-.024-.025a1.479,1.479,0,1,0-.831,2.56,4.647,4.647,0,0,0,.072.972,1.479,1.479,0,1,0,1.294,2.462l0,0c.044.043.088.086.134.128a4.631,4.631,0,0,0,.905.646,2.771,2.771,0,1,0,4.975-.356,4.615,4.615,0,0,0,1.706-2.533,1.479,1.479,0,1,0-.125-2.74,4.6,4.6,0,0,0-1.1-1.714l0,0a1.479,1.479,0,1,0-2.184-1.994Z" transform="translate(-70.944 -66.15)" fill="#f1f1f3"/>
        <rect id="Retângulo_7" data-name="Retângulo 7" width="16.43" height="2.464" transform="translate(290.211 15.197)" fill="#e6e6e6"/>
        <path id="Caminho_28" data-name="Caminho 28" d="M81.284,275.727c5.923,7.932,18.217,8.767,18.217,8.767s2.692-12.025-3.231-19.957-18.217-8.767-18.217-8.767S75.362,267.795,81.284,275.727Z" transform="translate(-70.944 -66.15)" fill="#e6e6e6"/>
        <path id="Caminho_29" data-name="Caminho 29" d="M111.456,278.709c-3.908,5.234-12.021,5.785-12.021,5.785s-1.776-7.935,2.132-13.169,12.021-5.785,12.021-5.785S115.364,273.475,111.456,278.709Z" transform="translate(-70.944 -66.15)" fill="#e6e6e6"/>
      </g>
    </g>
  </g>
</svg>
