<svg version="1.1" id="icons" xmlns="http://www.w3.org/2000/svg" x="0" y="0" viewBox="0 0 1867.5 1129.8" xml:space="preserve"><path class="st0" d="M46.4 830.6c-12.4 0-24-4.8-32.7-13.5-8.9-8.8-13.7-20.5-13.7-33V46.5C0 20.9 20.8.1 46.4.1H1295c19.1 0 34.6 15.4 34.6 34.6s-15.4 34.6-34.6 34.6H69.2v692.1l72.9-.4c18.8-.2 34.7 15.3 34.7 34.4.1 19.1-15.3 34.7-34.4 34.7l-95.7.5h-.3zm-.1-69.1z"/><path class="st0" d="M1727.2 974.1c-19.1 0-34.6-15.4-34.6-34.6s15.4-34.6 34.6-34.6c39.3 0 71.2-32 71.2-71.4V584.4c-.1-28.7-15.5-55.5-40.3-69.8l-105.5-61-179-384.4h-247.7c-19.1 0-34.6-15.4-34.6-34.6S1206.7 0 1225.8 0h250.3c25.2 0 48.4 14.8 59 37.7L1706 404.5l86.6 50.1c46.1 26.6 74.8 76.2 74.9 129.5V833.4c0 77.6-62.9 140.7-140.3 140.7z"/><path class="st0" d="M1543.2 545.7h-232c-61.9 0-112.3-50.3-112.3-112.3V164.8c0-44.3 36-80.2 80.2-80.2h238.7c19.1 0 34.6 15.4 34.6 34.6s-15.4 34.6-34.6 34.6h-238.7c-6.1 0-11.1 5-11.1 11.1v268.6c0 23.7 19.4 43.1 43.1 43.1h232c13 0 25.7-4.4 35.9-12.4l78.8-62.2c15-11.8 36.7-9.3 48.6 5.8 11.8 15 9.3 36.7-5.8 48.6l-78.8 62.2c-22.3 17.4-50.2 27.1-78.6 27.1zM1779.1 830.1h-138.3c-19.1 0-34.6-15.4-34.6-34.6 0-19.1 15.4-34.6 34.6-34.6h138.3c19.1 0 34.6 15.4 34.6 34.6 0 19.1-15.4 34.6-34.6 34.6zM1225.8 830.1H511.1c-19.1 0-34.6-15.4-34.6-34.6 0-19.1 15.4-34.6 34.6-34.6h714.7c19.1 0 34.6 15.4 34.6 34.6 0 19.1-15.5 34.6-34.6 34.6zM1825.2 737.9h-61.5c-19.1 0-34.6-15.4-34.6-34.6 0-19.1 15.4-34.6 34.6-34.6h61.5c19.1 0 34.6 15.4 34.6 34.6 0 19.1-15.4 34.6-34.6 34.6zM1433.3 1129.8c-108.1 0-196-87.9-196-196s87.9-196 196-196 196 87.9 196 196-88 196-196 196zm0-322.8c-69.9 0-126.8 56.9-126.8 126.8s56.9 126.8 126.8 126.8 126.8-56.9 126.8-126.8S1503.2 807 1433.3 807z"/><path class="st0" d="M1437.1 1022.2c-46.6 0-84.5-37.9-84.5-84.5s37.9-84.5 84.5-84.5 84.5 37.9 84.5 84.5-37.8 84.5-84.5 84.5zm0-99.9c-8.5 0-15.4 6.9-15.4 15.4s6.9 15.4 15.4 15.4 15.4-6.9 15.4-15.4-6.9-15.4-15.4-15.4zM334.3 1129.8c-108.1 0-196-87.9-196-196s87.9-196 196-196 196 87.9 196 196-87.9 196-196 196zm0-322.8c-69.9 0-126.8 56.9-126.8 126.8s56.9 126.8 126.8 126.8 126.8-56.9 126.8-126.8S404.2 807 334.3 807z"/><path class="st0" d="M330.5 1022.2c-46.6 0-84.5-37.9-84.5-84.5s37.9-84.5 84.5-84.5S415 891 415 937.7s-37.9 84.5-84.5 84.5zm0-99.9c-8.5 0-15.4 6.9-15.4 15.4s6.9 15.4 15.4 15.4 15.4-6.9 15.4-15.4c-.1-8.5-7-15.4-15.4-15.4zM1195 968.4H572.5c-19.1 0-34.6-15.4-34.6-34.6 0-19.1 15.4-34.6 34.6-34.6H1195c19.1 0 34.6 15.4 34.6 34.6 0 19.2-15.4 34.6-34.6 34.6zM90.4 968.4H32.5C14.5 968.4 0 953 0 933.8c0-19.1 14.5-34.6 32.5-34.6h57.9c18 0 32.5 15.4 32.5 34.6.1 19.2-14.5 34.6-32.5 34.6zM1487.1 274.5c-8.8 0-17.7-3.4-24.4-10.1L1342 143.7c-13.5-13.5-13.5-35.4 0-48.9s35.4-13.5 48.9 0l120.7 120.7c13.5 13.5 13.5 35.4 0 48.9-6.8 6.7-15.7 10.1-24.5 10.1zM1371.6 280.4c-8.8 0-17.7-3.4-24.4-10.1l-53.9-53.9c-13.5-13.5-13.5-35.4 0-48.9s35.4-13.5 48.9 0l53.9 53.9c13.5 13.5 13.5 35.4 0 48.9-6.8 6.8-15.6 10.1-24.5 10.1zM757.5 630.3H602.8c-23.1 0-41.8-18.8-41.8-41.8v-65.8h-73.5c-23.1 0-41.8-18.8-41.8-41.8V326.2c0-23.1 18.8-41.8 41.8-41.8H561v-65.8c0-23.1 18.8-41.8 41.8-41.8h154.6c23.1 0 41.8 18.8 41.8 41.8v65.8H865c23.1 0 41.8 18.8 41.8 41.8v154.6c0 23.1-18.8 41.8-41.8 41.8h-65.8v65.8c.1 23.1-18.7 41.9-41.7 41.9zm-127.3-69.2h99.9V453.5h107.6v-99.9H730.1V246h-99.9v107.6H514.9v99.9h115.3v107.6zM865 353.6z"/></svg>