<svg xmlns="http://www.w3.org/2000/svg" width="34.627" height="39.34" viewBox="0 0 34.627 39.34">
  <g id="icone_pacientes_aguardando" data-name="icone pacientes aguardando" transform="translate(164.084 80.311)">
    <g id="Grupo_1308" data-name="Grupo 1308" transform="translate(-163.334 -79.561)">
      <path id="Caminho_1873" data-name="Caminho 1873" d="M1674.126,1396.885H1671.6v-2.526a.178.178,0,0,0-.178-.178h-3.869a.178.178,0,0,0-.178.178v2.526h-2.526a.178.178,0,0,0-.178.178v3.869a.178.178,0,0,0,.178.178h2.526v2.526a.178.178,0,0,0,.178.178h3.869a.178.178,0,0,0,.178-.178v-2.526h2.526a.178.178,0,0,0,.178-.178v-3.869A.178.178,0,0,0,1674.126,1396.885Z" transform="translate(-1652.839 -1385.074)" fill="none" stroke="#3d5a80" stroke-linecap="round" stroke-miterlimit="10" stroke-width="1.5"/>
      <circle id="Elipse_35" data-name="Elipse 35" cx="2.535" cy="2.535" r="2.535" transform="translate(14.028 21.614)" fill="none" stroke="#3d5a80" stroke-linecap="round" stroke-miterlimit="10" stroke-width="1.5"/>
      <path id="Caminho_1874" data-name="Caminho 1874" d="M1702.035,1512.547v-7.868a2.22,2.22,0,0,0-1.554-2.118l-1.562-.491a.547.547,0,0,0-.563.148l-1.738,1.854" transform="translate(-1679.387 -1474.707)" fill="none" stroke="#3d5a80" stroke-linecap="round" stroke-miterlimit="10" stroke-width="1.5"/>
      <path id="Caminho_1875" data-name="Caminho 1875" d="M1655.67,1512.615v-7.868a2.219,2.219,0,0,1,1.554-2.117l1.518-.477a.547.547,0,0,1,.6.2l2.57,3.476" transform="translate(-1645.36 -1474.776)" fill="none" stroke="#3d5a80" stroke-linecap="round" stroke-miterlimit="10" stroke-width="1.5"/>
      <line id="Linha_31" data-name="Linha 31" y2="3.718" transform="translate(13.014 31.586)" fill="none" stroke="#3d5a80" stroke-linecap="round" stroke-miterlimit="10" stroke-width="1.5"/>
      <line id="Linha_32" data-name="Linha 32" y2="3.718" transform="translate(20.113 31.586)" fill="none" stroke="#3d5a80" stroke-linecap="round" stroke-miterlimit="10" stroke-width="1.5"/>
      <circle id="Elipse_36" data-name="Elipse 36" cx="2.535" cy="2.535" r="2.535" transform="translate(24.507 18.234)" fill="none" stroke="#3d5a80" stroke-linecap="round" stroke-miterlimit="10" stroke-width="1.5"/>
      <path id="Caminho_1876" data-name="Caminho 1876" d="M1764.035,1492.547v-7.868a2.22,2.22,0,0,0-1.554-2.117l-1.562-.491a.547.547,0,0,0-.563.147l-1.738,1.854" transform="translate(-1730.909 -1458.088)" fill="none" stroke="#3d5a80" stroke-linecap="round" stroke-miterlimit="10" stroke-width="1.5"/>
      <path id="Caminho_1877" data-name="Caminho 1877" d="M1725.506,1484.662l-2.571-3.477a.547.547,0,0,0-.6-.2l-2.662-.039" transform="translate(-1698.543 -1457.178)" fill="none" stroke="#3d5a80" stroke-linecap="round" stroke-miterlimit="10" stroke-width="1.5"/>
      <line id="Linha_33" data-name="Linha 33" y2="3.718" transform="translate(30.592 28.206)" fill="none" stroke="#3d5a80" stroke-linecap="round" stroke-miterlimit="10" stroke-width="1.5"/>
      <circle id="Elipse_37" data-name="Elipse 37" cx="2.535" cy="2.535" r="2.535" transform="translate(3.718 18.234)" fill="none" stroke="#3d5a80" stroke-linecap="round" stroke-miterlimit="10" stroke-width="1.5"/>
      <path id="Caminho_1878" data-name="Caminho 1878" d="M1594.67,1492.547v-7.868a2.219,2.219,0,0,1,1.554-2.117l1.562-.491a.547.547,0,0,1,.563.147l1.738,1.854" transform="translate(-1594.67 -1458.088)" fill="none" stroke="#3d5a80" stroke-linecap="round" stroke-miterlimit="10" stroke-width="1.5"/>
      <path id="Caminho_1879" data-name="Caminho 1879" d="M1630.815,1484.73l2.571-3.476a.547.547,0,0,1,.6-.2l2.717-.025" transform="translate(-1624.706 -1457.246)" fill="none" stroke="#3d5a80" stroke-linecap="round" stroke-miterlimit="10" stroke-width="1.5"/>
      <line id="Linha_34" data-name="Linha 34" y2="3.718" transform="translate(2.535 28.206)" fill="none" stroke="#3d5a80" stroke-linecap="round" stroke-miterlimit="10" stroke-width="1.5"/>
      <path id="Caminho_1880" data-name="Caminho 1880" d="M1610.851,1357.476a13.875,13.875,0,1,1,27.02-.264" transform="translate(-1607.787 -1340.298)" fill="none" stroke="#3d5a80" stroke-linecap="round" stroke-miterlimit="10" stroke-width="1.5"/>
      <path id="Caminho_1881" data-name="Caminho 1881" d="M1625.81,1368.961a11.3,11.3,0,1,1,22.427-.217" transform="translate(-1620.468 -1353.505)" fill="none" stroke="#3d5a80" stroke-linecap="round" stroke-miterlimit="10" stroke-width="1.5"/>
    </g>
  </g>
</svg>
